<?xml version="1.0" encoding="utf-8"?>
<svg version="1.1" x="0px" y="0px" viewBox="0 0 500 500" style="enable-background:new 0 0 500 500;" width="500px" height="500px" xmlns="http://www.w3.org/2000/svg" xmlns:bx="https://boxy-svg.com"><defs><bx:export><bx:file format="svg"/></bx:export></defs><g id="OBJECTS"><path style="fill: rgb(222, 229, 239);" d="M43,353.395c0,0,1.295-48.3,12.951-78.734c11.655-30.433,33.024,20.313,44.032,12.423&#10;&#9;&#9;c11.008-7.89,22.952-87.846,63.601-104.526c40.65-16.68,43.982,19.982,63.684,36.617c19.702,16.635,46.548-83.084,81.217-83.084&#10;&#9;&#9;c24.762,0,37.654,34.627,45.833,52.987c6.008,13.486,9.643,28.344,18.529,40.396c12.988,17.615,27.581,11.719,44.109,2.104&#10;&#9;&#9;c6.86-3.991,14.943-7.34,22.567-5.134c6.729,1.947,11.539,7.792,15.356,13.665c13.608,20.939,18.756,44.813,18.859,69.496&#10;&#9;&#9;c0.014,3.315,0.005,43.79-0.134,43.79C473.602,353.395,43,353.395,43,353.395z"/><g><polygon style="fill:#3352B4;" points="152.977,162.5 142.512,220.817 147.465,218.025 170.221,162.5 &#9;&#9;"/><polygon style="fill:#303251;" points="142.512,220.817 134.774,228.146 146.297,224.025 147.465,218.025 &#9;&#9;"/></g><g><path style="fill:#DEE5EF;" d="M357.167,360.695c0,1.578-44.509,2.858-99.413,2.858c-54.904,0-99.413-1.28-99.413-2.858&#10;&#9;&#9;&#9;c0-1.579,44.509-2.858,99.413-2.858C312.658,357.837,357.167,359.117,357.167,360.695z"/><g><path style="fill:#E07575;" d="M341.443,171.628H171.017c-7.841,0-14.198,7.149-14.198,15.968v121.036&#10;&#9;&#9;&#9;&#9;c0,8.819,6.357,15.968,14.198,15.968h61.811l23.403,28.795l20.602-28.795h64.611c7.841,0,14.198-7.149,14.198-15.968V187.596&#10;&#9;&#9;&#9;&#9;C355.64,178.777,349.284,171.628,341.443,171.628z"/><path style="fill:#FFFFFF;" d="M302.762,238.894l-0.009-0.001c0.105-0.899,0.173-1.808,0.173-2.735&#10;&#9;&#9;&#9;&#9;c0-12.921-10.475-23.396-23.396-23.396c-12.669,0-22.96,7.005-23.358,19.577l-0.076-0.006&#10;&#9;&#9;&#9;&#9;c-0.401-12.57-10.691-19.571-23.358-19.571c-12.921,0-23.396,10.475-23.396,23.396c0,5.583,1.962,10.704,5.225,14.725&#10;&#9;&#9;&#9;&#9;l-0.003,0.003l0.019,0.017c1.475,1.814,7.66,9.182,9.608,10.485l31.943,27.409l32.619-28.345&#10;&#9;&#9;&#9;&#9;c3.024-2.797,7.527-7.798,9.077-9.744l0.045-0.041l0.018-0.043c2.603-3.299,4.336-7.31,4.854-11.699L302.762,238.894z"/></g></g><g><ellipse style="fill:#DEE5EF;" cx="148.891" cy="430.907" rx="55.891" ry="4.093"/><rect x="195.446" y="228.119" style="fill:#303251;" width="9.336" height="18.447"/><path style="fill:#3352B4;" d="M155.245,244.766c0,0-16.825-3.824-21.774,5.399c-4.949,9.223-1.125,19.122-0.9,24.52&#10;&#9;&#9;&#9;c0.225,5.399-11.023,19.346-8.548,31.269c2.475,11.923,11.473,20.246,25.195,17.322c0,0-3.824,1.8-6.299,2.699&#10;&#9;&#9;&#9;c0,0,17.547,3.15,26.545-11.248c8.998-14.397-4.949-30.594-5.624-35.768C163.165,273.785,172.97,249.94,155.245,244.766z"/><path style="fill:#DDB44E;" d="M133.245,329.125l-17.829,91.108h8.25l32-71.566l-14.886-16.49&#10;&#9;&#9;&#9;C140.781,332.177,137.587,331.877,133.245,329.125z"/><path style="fill:#F1C956;" d="M159.79,329.125l22.876,91.125l-10.188-0.017L134.333,330&#10;&#9;&#9;&#9;C134.333,330,149.105,332.499,159.79,329.125z"/><path style="fill:#5774CE;" d="M124.022,305.954c-1.079-5.198,0.451-10.781,2.501-15.872l0,0c0,0-11.274,16.773-13.974,20.822&#10;&#9;&#9;&#9;c-2.699,4.049,20.696,18.222,20.696,18.222l2.461-6.974l-0.003-0.012C129.594,319.333,125.554,313.338,124.022,305.954z"/><path style="fill:#5F7AE8;" d="M142.919,325.975c2.475-0.9,6.299-2.699,6.299-2.699c-6.427,1.37-11.802,0.249-15.972-2.53v8.379&#10;&#9;&#9;&#9;c4.949,6.974,26.545,0,26.545,0l-0.968-5.193C150.876,327.396,142.919,325.975,142.919,325.975z"/><path style="fill:#5F7AE8;" d="M171.923,298.979l26.11-38.017l-4.049-4.274l-26.836,29.748&#10;&#9;&#9;&#9;C168.942,289.992,170.969,294.328,171.923,298.979z"/><polygon style="fill:#E2756B;" points="118.061,420.233 117.161,423.832 121.772,423.832 122.222,420.233 &#9;&#9;"/><polygon style="fill:#E2756B;" points="172.478,420.233 173.625,423.832 179.249,423.832 178.012,420.233 &#9;&#9;"/><polygon style="fill:#303251;" points="117.161,423.832 113.224,429.794 122.222,429.794 121.772,423.832 &#9;&#9;"/><polygon style="fill:#303251;" points="173.625,423.832 173.625,429.794 191.397,429.794 179.249,423.832 &#9;&#9;"/><path style="fill:#F1C956;" d="M193.984,256.688l3.262-4.499c0,0-0.675-3.149-1.012-4.949c-0.337-1.8-0.675-3.824,0.337-3.824&#10;&#9;&#9;&#9;s2.25,1.912,3.599,1.237c1.35-0.675,1.462-6.411,3.599-7.086c2.137-0.675,3.149,4.949,2.924,7.761&#10;&#9;&#9;&#9;c-0.225,2.812-9.205,15.061-9.205,15.061L193.984,256.688z"/></g><g><ellipse style="fill:#DEE5EF;" cx="399.333" cy="360.695" rx="64.667" ry="4.305"/><polygon style="fill:#3352B4;" points="368.935,360.108 452.656,360.108 452.656,355.36 368.935,341.412 &#9;&#9;"/><polygon style="fill:#303251;" points="458.591,360.108 459.333,344.565 452.656,355.36 452.656,360.108 &#9;&#9;"/><path style="fill:#F1C956;" d="M368.671,314.406c0,0,0.594-1.484,0-3.116c-0.594-1.632-7.716-11.574-16.025-11.871&#10;&#9;&#9;&#9;c-8.309-0.297-10.832,2.226-9.942,6.677c0.89,4.452,6.224,3.71,11.05,4.081C358.581,310.548,364.813,316.78,368.671,314.406z"/><path style="fill:#F1C956;" d="M366.63,329.096c0.023-6.483-1.038-11.605-1.801-14.448c-3.496-0.986-7.64-4.206-11.075-4.47&#10;&#9;&#9;&#9;c-2.999-0.23-6.193-0.033-8.396-0.917c0,0-0.002,0.001-0.002,0.001s-6.659,19.836-6.659,30.964&#10;&#9;&#9;&#9;c0,11.129,8.458,15.135,8.458,15.135c6.084-7.864,21.779-13.948,21.779-13.948S366.594,339.186,366.63,329.096z"/><rect x="389.348" y="296.392" transform="matrix(0.8418 0.5398 -0.5398 0.8418 225.6653 -162.6667)" style="fill:#303251;" width="2.003" height="14.542"/><path style="fill:#E2756B;" d="M383.592,318.392l2.526-2.995c0,0-0.583-2.72-0.874-4.274c-0.291-1.554-0.583-3.303,0.291-3.303&#10;&#9;&#9;&#9;c0.874,0,1.943,1.651,3.108,1.069c1.166-0.583,1.263-5.537,3.109-6.12c1.846-0.583,2.72,4.274,2.526,6.703&#10;&#9;&#9;&#9;c-0.194,2.428-7.276,11.671-7.276,11.671L383.592,318.392z"/><path style="fill:#E2756B;" d="M372.529,278.244c0,0,7.122,3.962,6.974,13.162s-8.755,13.8-16.47,12.761l-0.742,4.748&#10;&#9;&#9;&#9;c0,0-3.413,0.297-6.974-3.264l0.89-9.942c0,0-2.968-2.671-2.374-6.232c0.594-3.561,2.522-3.858,3.858-3.413&#10;&#9;&#9;&#9;c1.335,0.445,1.929,5.045,1.929,5.045s4.452-2.374,5.045-9.793C364.665,281.316,371.194,280.514,372.529,278.244z"/><path style="fill:#3352B4;" d="M378.019,264.698c-4.303-2.374-11.389,6.529-11.389,6.529s-6.565-0.89-11.165,2.671&#10;&#9;&#9;&#9;c-4.6,3.561-11.666,17.404,0.567,23.766l0,0l0.175-1.953c0,0-2.968-2.671-2.374-6.232c0.594-3.561,2.522-3.858,3.858-3.413&#10;&#9;&#9;&#9;c1.335,0.445,1.929,5.045,1.929,5.045s4.452-2.374,5.045-9.793c0,0,6.529-0.802,7.864-3.072c0,0,3.318,1.851,5.378,5.951&#10;&#9;&#9;&#9;c0,0,0.001-0.002,0.001-0.002s2.189-1.839-1.076-8.516c0,0,1.903-1.376,2.673-3.561&#10;&#9;&#9;&#9;C379.505,272.117,382.322,267.072,378.019,264.698z"/><path style="fill:#DDB44E;" d="M360.065,323.457c0,0-0.202-7.271-4.33-9.942c-4.128-2.671-9.618,1.187-9.321,8.013&#10;&#9;&#9;&#9;c0.297,6.826,5.787,22.258,12.761,26.709s28.49-26.561,28.49-26.561l-4.6-3.71l-20.774,18.993&#10;&#9;&#9;&#9;C362.291,336.96,360.51,331.322,360.065,323.457z"/><path style="fill:#5F7AE8;" d="M347.156,355.36c0,0,8.54,8.309,21.779,4.748c13.239-3.561,31.045-33.09,31.045-33.09l7.798,28.341&#10;&#9;&#9;&#9;h7.735c0,0-6.036-36.795-7.816-41.442c-1.781-4.647-8.31-1.667-9.645-0.338c-1.335,1.329-29.116,27.832-29.116,27.832&#10;&#9;&#9;&#9;S351.31,348.831,347.156,355.36z"/><polygon style="fill:#303251;" points="409.328,360.995 407.778,355.36 415.512,355.36 426.392,360.995 &#9;&#9;"/></g><g><g><path style="fill:#E2756B;" d="M166.938,100.948c0,0-3.313,8.549,1.985,16.947c4.212,5.592,15.637,1.526,17.603,0.106&#10;&#9;&#9;&#9;&#9;c0,0-0.884-2.525-1.025-6.27c-0.141-3.745-1.025-6.27-5.151-6.538C176.224,104.925,170.722,104.882,166.938,100.948z"/><path style="fill:#3352B4;" d="M194.16,96.498c-5.22-8.882-13.57-10.971-18.183-10.374s-11.367,1.544-13.99,9.51&#10;&#9;&#9;&#9;&#9;c-2.623,7.966,3.84,12.876,3.84,12.876s0.052,0.018,0.129,0.045c-0.249-4.404,0.982-7.606,0.982-7.606&#10;&#9;&#9;&#9;&#9;c3.783,3.935,9.286,3.978,13.412,4.245s5.01,2.792,5.151,6.538c0.141,3.745,1.025,6.27,1.025,6.27&#10;&#9;&#9;&#9;&#9;c2.563,3.192,4.764,2.833,4.764,2.833c-2.407-1.648-3.634-5.53-3.575-8.052c0.059-2.522-0.391-5.275-1.862-7.547&#10;&#9;&#9;&#9;&#9;c-1.47-2.272-2.354-4.797,0.857-5.322c3.212-0.525,3.348,0.787,3.595,3.259c0.247,2.472-1.671,4.669-0.99,6.913&#10;&#9;&#9;&#9;&#9;c0.681,2.244,1.926,3.139,1.926,3.139C198.816,110.575,199.38,105.38,194.16,96.498z"/><path style="fill:#3352B4;" d="M183.666,87.253c0,0-1.541-3.861,1.852-5.201c3.392-1.34,10.818,2.785,13.759,7.329&#10;&#9;&#9;&#9;&#9;c2.941,4.544-0.98,7.933-5.117,7.117C194.16,96.498,190.993,90.011,183.666,87.253z"/><path style="fill:#E2756B;" d="M192.174,112.858c-0.303,0.125-0.603,0.252-0.933,0.368c0,0-1.245-0.896-1.926-3.139&#10;&#9;&#9;&#9;&#9;c-0.681-2.244,1.237-4.442,0.99-6.913c-0.247-2.472-0.383-3.784-3.595-3.259c-3.212,0.525-2.328,3.05-0.857,5.322&#10;&#9;&#9;&#9;&#9;c1.471,2.272,1.92,5.025,1.862,7.547c-0.052,2.22,0.895,5.489,2.763,7.365c1.508-3.18,3.811-4.66,3.811-4.66&#10;&#9;&#9;&#9;&#9;c-1.761-0.454-2.96-2.418-2.96-2.418L192.174,112.858z"/></g><path style="fill:#F1C956;" d="M189.584,153.033c0,0,3.658,2.311,7.546,3.503l7.047-11.171c0,0-10.637-22.363-11.872-29.316&#10;&#9;&#9;&#9;l-2.72,3.377c0,0-4.018,6.381-4.966,9.396c-0.948,3.016,0.172,5.859,2.843,8.702C190.132,140.368,191.017,147.433,189.584,153.033&#10;&#9;&#9;&#9;z"/><path style="fill:#E2756B;" d="M187.462,137.525c-0.75-0.799-1.363-1.598-1.857-2.401l-0.008,0.003l-7.698,9.98l-13.699-17.404&#10;&#9;&#9;&#9;c0,0,0.775-5.428,0-6.203c-0.776-0.776-2.154-0.086-2.671,2.671c0,0-5.083-3.877-7.668-3.446&#10;&#9;&#9;&#9;c-2.585,0.431-2.413,4.394,1.637,6.979s4.911,2.671,4.911,2.671s11.029,23.349,17.404,24.9&#10;&#9;&#9;&#9;c3.176,0.429,12.229-10.531,12.296-10.611C189.765,141.67,188.862,139.015,187.462,137.525z"/><path style="fill:#5F7AE8;" d="M189.584,153.033l-33.733,7.024c-3.471,0.723-5.347,4.505-3.824,7.706l20.96,44.031h4.825&#10;&#9;&#9;&#9;l-8.503-39.806c7.02,1.817,17.48-0.27,32.182-0.27c4.451,0,5.485-7.239,4.701-14.499&#10;&#9;&#9;&#9;C206.192,157.219,196.704,157.858,189.584,153.033z"/><polygon style="fill:#303251;" points="172.987,211.795 172.125,225.753 178.893,215.413 177.812,211.795 &#9;&#9;"/><rect x="155.344" y="110.605" transform="matrix(0.8905 -0.4551 0.4551 0.8905 -37.0304 84.2591)" style="fill:#303251;" width="2.326" height="16.887"/><path style="fill:#E2756B;" d="M153.859,120.723c0,0,1.264-0.657,3.188-0.033c1.924,0.624,2.896,5.026,2.266,6.407&#10;&#9;&#9;&#9;C158.684,128.478,153.859,120.723,153.859,120.723z"/><path style="fill:#E2756B;" d="M197.442,115.037c0,0-4.246-1.404-6.424,2.357c-2.178,3.761,13.158,27.972,13.158,27.972&#10;&#9;&#9;&#9;l-13.37,21.195c0,0-5.413,0.086-6.533,1.378c-1.12,1.292-0.431,5.084,0.517,6.462c0.948,1.379,2.326,2.93,4.222,3.102&#10;&#9;&#9;&#9;c1.896,0.172,1.057-5.051,2.436-5.482c1.679,0,3.768,0.111,4.199-2.302c0,0,16.801-19.098,17.749-21.855&#10;&#9;&#9;&#9;C214.343,145.107,205.936,121.725,197.442,115.037z"/></g><g><ellipse style="fill:#DEE5EF;" cx="300.417" cy="434.404" rx="33" ry="3.346"/><path style="fill:#F1C956;" d="M289.069,360.108c0,0-8.239,3.168-11.147,13.527c-2.908,10.358,3.843,13.266,1.921,21.02&#10;&#9;&#9;&#9;c-1.921,7.754-5.337,8.819-2.66,19.191c2.677,10.372,15.277,17.212,15.277,17.212s14.09-9.749,9.953-33.011&#10;&#9;&#9;&#9;c-1.714-11.572-8.014-13.931-6.561-24.412C297.307,363.154,289.069,360.108,289.069,360.108z"/><path style="fill:#7BA2FE;" d="M276.198,434.114c0,0,0.485-12.528,8.723-16.405c8.239-3.877,14.807,5.376,14.807,5.376&#10;&#9;&#9;&#9;s2.155-19.412,12.817-22.086c10.662-2.674,14.539,20.442,14.539,33.115H276.198z"/><path style="fill:#F1C956;" d="M421.471,376.333c0,0,0.371-9.603,6.687-12.575c6.315-2.972,11.35,4.121,11.35,4.121&#10;&#9;&#9;&#9;s1.652-14.88,9.825-16.93c8.173-2.05,11.145,15.67,11.145,25.384H421.471z"/></g><g><ellipse style="fill:#DEE5EF;" cx="72.542" cy="359.32" rx="42.625" ry="2.93"/><path style="fill:#F1C956;" d="M53.348,256.688c0,0-11.333,4.359-15.333,18.608s5.286,18.249,2.643,28.916&#10;&#9;&#9;&#9;c-2.643,10.667-7.341,12.132-3.659,26.399c3.682,14.267,21.016,23.678,21.016,23.678s19.383-13.41,13.691-45.41&#10;&#9;&#9;&#9;c-2.358-15.919-11.025-19.165-9.025-33.582C64.682,260.878,53.348,256.688,53.348,256.688z"/><path style="fill:#7BA2FE;" d="M35.643,358.493c0,0,0.667-17.233,12-22.566c11.333-5.333,20.368,7.395,20.368,7.395&#10;&#9;&#9;&#9;s2.965-26.704,17.632-30.383c14.667-3.679,20,28.121,20,45.554H35.643z"/></g></g></svg>